<svg width="178" height="64" fill="none" xmlns="http://www.w3.org/2000/svg"><path d="m91.898 19.86 8.469-.546c.193 1.383.547 2.411 1.126 3.15.934 1.158 2.222 1.737 3.929 1.737 1.256 0 2.254-.29 2.93-.9a2.587 2.587 0 0 0 1.03-2.058c0-.771-.354-1.51-.966-1.993-.644-.579-2.157-1.157-4.54-1.672-3.896-.868-6.697-2.025-8.34-3.504-1.642-1.382-2.575-3.408-2.511-5.562 0-1.478.45-2.957 1.288-4.179.966-1.382 2.286-2.475 3.864-3.086 1.706-.74 4.089-1.125 7.084-1.125 3.671 0 6.472.675 8.404 2.057 1.932 1.35 3.091 3.537 3.445 6.526l-8.372.482c-.225-1.285-.676-2.218-1.416-2.828-.741-.611-1.707-.9-2.963-.9-1.03 0-1.803.224-2.318.642-.483.386-.805.965-.773 1.608 0 .482.258.932.644 1.221.419.386 1.417.74 2.995 1.061 3.896.836 6.665 1.672 8.372 2.54 1.706.868 2.93 1.929 3.67 3.183a7.946 7.946 0 0 1 1.127 4.275c0 1.8-.515 3.6-1.545 5.112a9.767 9.767 0 0 1-4.283 3.536c-1.835.804-4.154 1.222-6.923 1.222-4.894 0-8.275-.933-10.175-2.83-1.9-1.896-3.027-4.275-3.252-7.168Zm-89.87 9.517V.637h14.845c2.737 0 4.862.224 6.31.706a6.669 6.669 0 0 1 3.51 2.637c.934 1.382 1.385 2.99 1.353 4.661.096 2.83-1.352 5.53-3.832 6.944a9.833 9.833 0 0 1-3.123 1.125c.805.225 1.61.611 2.318 1.061.548.45.998.964 1.417 1.511.483.546.902 1.157 1.256 1.8l4.314 8.327h-10.11l-4.766-8.841c-.611-1.125-1.127-1.865-1.61-2.218a3.827 3.827 0 0 0-2.19-.675h-.772v11.67h-8.92v.032Zm8.92-17.103h3.767a14.338 14.338 0 0 0 2.35-.386 2.255 2.255 0 0 0 1.45-.9 2.856 2.856 0 0 0-.322-3.794c-.58-.482-1.707-.739-3.317-.739h-3.928v5.819ZM0 54.002l8.469-.547c.193 1.383.547 2.412 1.127 3.15.901 1.158 2.221 1.77 3.928 1.77 1.256 0 2.254-.29 2.93-.901.644-.514 1.03-1.254 1.03-2.057 0-.772-.354-1.511-.966-1.994-.644-.578-2.157-1.157-4.572-1.671-3.896-.868-6.697-2.026-8.34-3.505-1.642-1.382-2.576-3.407-2.511-5.561 0-1.479.45-2.958 1.288-4.18.966-1.382 2.286-2.475 3.864-3.086 1.706-.739 4.09-1.125 7.084-1.125 3.67 0 6.472.675 8.404 2.058 1.932 1.382 3.059 3.536 3.413 6.526l-8.372.482c-.225-1.286-.676-2.218-1.417-2.83-.708-.61-1.706-.9-2.962-.867-1.03 0-1.803.225-2.319.675-.515.386-.804.965-.772 1.607 0 .483.257.933.644 1.222.418.386 1.417.74 2.994 1.06 3.896.837 6.666 1.673 8.372 2.54 1.707.869 2.93 1.93 3.671 3.183a8.25 8.25 0 0 1 1.16 4.244c0 1.8-.548 3.568-1.546 5.08a9.765 9.765 0 0 1-4.283 3.535c-1.835.804-4.154 1.222-6.923 1.222-4.894 0-8.275-.932-10.175-2.829C1.32 59.274.258 56.895 0 54.002Z" fill="#000"/><path d="m42.826 51.752 7.792 2.346c-.419 1.961-1.288 3.826-2.48 5.466a10.786 10.786 0 0 1-4.185 3.31c-1.675.74-3.8 1.126-6.376 1.126-3.123 0-5.7-.45-7.663-1.35-1.997-.9-3.703-2.508-5.152-4.79-1.45-2.283-2.158-5.208-2.158-8.777 0-4.758 1.256-8.422 3.8-10.962 2.544-2.54 6.118-3.826 10.754-3.826 3.639 0 6.473.74 8.566 2.186 2.06 1.48 3.606 3.73 4.636 6.751l-7.856 1.736a6.955 6.955 0 0 0-.87-1.929 5.107 5.107 0 0 0-1.835-1.575c-.74-.386-1.578-.546-2.415-.546-2.029 0-3.574.803-4.637 2.443-.805 1.19-1.224 3.086-1.224 5.658 0 3.183.484 5.369 1.45 6.558.965 1.19 2.318 1.768 4.089 1.768 1.706 0 2.994-.482 3.864-1.414.87-.997 1.513-2.38 1.9-4.18Zm18.192-16.975h8.888V44.84h9.724V34.777h8.951v28.74H79.63V51.88h-9.724v11.638h-8.888v-28.74Z" fill="#000"/><path d="M87.358 49.148c0-4.694 1.32-8.359 3.928-10.963 2.608-2.604 6.28-3.922 10.948-3.922 4.798 0 8.469 1.286 11.077 3.858 2.608 2.572 3.896 6.172 3.896 10.802 0 3.375-.58 6.108-1.707 8.262a12.047 12.047 0 0 1-4.894 5.015c-2.157 1.19-4.83 1.8-8.018 1.8-3.252 0-5.924-.514-8.05-1.543a12.263 12.263 0 0 1-5.184-4.887c-1.32-2.25-1.996-5.047-1.996-8.422Zm8.887.032c0 2.893.547 4.983 1.61 6.269 1.063 1.253 2.544 1.896 4.411 1.896 1.9 0 3.381-.61 4.444-1.864 1.062-1.254 1.578-3.472 1.578-6.687 0-2.7-.548-4.694-1.643-5.915-1.094-1.254-2.576-1.865-4.443-1.865-1.642-.064-3.22.643-4.315 1.897-1.095 1.254-1.642 3.343-1.642 6.269Zm30.074-.032c0-4.694 1.321-8.359 3.929-10.963 2.608-2.604 6.279-3.922 10.948-3.922 4.797 0 8.5 1.286 11.076 3.858 2.576 2.572 3.897 6.172 3.897 10.802 0 3.375-.58 6.108-1.707 8.262a12.053 12.053 0 0 1-4.894 5.015c-2.158 1.19-4.83 1.8-8.018 1.8-3.252 0-5.925-.514-8.05-1.543a12.259 12.259 0 0 1-5.184-4.887c-1.32-2.25-1.997-5.047-1.997-8.422Zm8.888.032c0 2.893.547 4.983 1.61 6.269 1.062 1.253 2.543 1.896 4.411 1.896 1.9 0 3.381-.61 4.443-1.864 1.063-1.254 1.578-3.472 1.578-6.687 0-2.7-.547-4.694-1.642-5.915-1.095-1.254-2.576-1.865-4.443-1.865a5.411 5.411 0 0 0-4.315 1.897c-1.095 1.254-1.642 3.343-1.642 6.269Z" fill="#000"/><path d="M155.235 34.777h8.887v21.668H178v7.073h-22.797v-28.74h.032Z" fill="#000"/></svg>